# AST/ASF file generated using VICON BodyLanguage
# -----------------------------------------------
:version 1.10
:name VICON
:units
  mass 1.0
  length 0.45
  angle deg
:documentation
   .ast/.asf automatically generated from VICON data using
   VICON BodyBuilder and BodyLanguage model FoxedUp or BRILLIANT.MOD
:root
   order TX TY TZ RX RY RZ
   axis XYZ
   position 0 0 0  
   orientation 0 0 0 
:bonedata
  begin
     id 1 
     name lhipjoint
     direction 0.707368 -0.647095 0.284426 
     length 2.60678 
     axis 0 0 0  XYZ
  end
  begin
     id 2 
     name lfemur
     direction 0.34202 -0.939693 0  
     length 6.63812  
     axis 0 0 20  XYZ
    dof rx ry rz
    limits (-160.0 20.0)
           (-70.0 70.0)
           (-60.0 70.0)
  end
  begin
     id 3 
     name ltibia
     direction 0.34202 -0.939693 0   
     length 7.51178   
     axis 0 0 20   XYZ
    dof rx
    limits (-10.0 170.0)
  end
  begin
     id 4 
     name lfoot
     direction 0.121251 -0.333133 0.935051   
     length 1.83716   
     axis -90 7.62852e-016 20   XYZ
    dof rx rz
    limits (-45.0 90.0)
           (-70.0 20.0)
  end
  begin
     id 5 
     name ltoes
     direction 1.53611e-011 -4.21962e-011 1   
     length 0.916133   
     axis -90 7.62852e-016 20   XYZ
    dof rx
    limits (-90.0 20.0)
  end
  begin
     id 6 
     name rhipjoint
     direction -0.692419 -0.660507 0.290321   
     length 2.55385  
     axis 0 0 0  XYZ 
  end
  begin
     id 7 
     name rfemur
     direction -0.34202 -0.939693 0   
     length 7.29079   
     axis 0 0 -20   XYZ
    dof rx ry rz
    limits (-160.0 20.0)
           (-70.0 70.0)
           (-70.0 60.0)
  end
  begin
     id 8 
     name rtibia
     direction -0.34202 -0.939693 0   
     length 7.47143   
     axis 0 0 -20   XYZ
    dof rx
    limits (-10.0 170.0)
 end
 begin
     id 9 
     name rfoot
     direction -0.119907 -0.329441 0.936532   
     length 1.79439  
     axis -90 -7.62852e-016 -20   XYZ
    dof rx rz
    limits (-45.0 90.0)
           (-20.0 70.0)
  end
  begin
     id 10 
     name rtoes
     direction -1.53571e-011 -4.21961e-011 1   
     length 0.896039   
     axis -90 -7.62852e-016 -20   XYZ
    dof rx
    limits (-90.0 20.0)
  end
  begin
     id 11 
     name lowerback
     direction 0.0367721 0.992912 -0.113016   
     length 1.73542   
     axis 0 0 0   XYZ
    dof rx ry rz
    limits (-20.0 45.0)
           (-30.0 30.0)
           (-30.0 30.0)
  end
  begin
     id 12 
     name upperback
     direction -0.000314626 0.990678 0.136227   
     length 1.7514   
     axis 0 0 0   XYZ
    dof rx ry rz
    limits (-20.0 45.0)
           (-30.0 30.0)
           (-30.0 30.0)
  end
  begin
     id 13 
     name thorax
     direction -0.0226159 0.981151 0.191917   
     length 1.71471   
     axis 0 0 0   XYZ
    dof rx ry rz
    limits (-20.0 45.0)
           (-30.0 30.0)
           (-30.0 30.0)
  end
  begin
     id 14 
     name lowerneck
     direction 0.0219333 0.998071 0.0580739   
     length 1.65882   
     axis 0 0 0   XYZ
    dof rx ry rz
    limits (-20.0 45.0)
           (-30.0 30.0)
           (-30.0 30.0)
  end
  begin
     id 15 
     name upperneck
     direction 0.0384529 0.980058 -0.194957   
     length 1.6612   
     axis 0 0 0   XYZ
    dof rx ry rz
    limits (-20.0 45.0)
           (-30.0 30.0)
           (-30.0 30.0)
  end
  begin
     id 16
     name head
     direction 0.00592123 0.997421 -0.0715234  
     length 1.68077  
     axis 0 0 0   XYZ
    dof rx ry rz
    limits (-20.0 45.0)
           (-30.0 30.0)
           (-30.0 30.0)
  end
  begin
     id 17 
     name lclavicle
     direction 0.904803 0.417826 0.0821728  
     length 3.42227  
     axis 0 0 0   XYZ
    dof ry rz
    limits (-20.0 10.0)
           (0.0 20.0)
  end
  begin
     id 18 
     name lhumerus
     direction 1 -4.48965e-011 -2.68786e-027   
     length 5.11878   
     axis -180 -30 -90   XYZ
    dof rx ry rz
    limits (-60.0 90.0)
           (-90.0 90.0)
           (-90.0 90.0)
  end
  begin
     id 19
     name lradius
     direction 1 -4.48965e-011 2.61168e-028   
     length 3.59971   
     axis -180 -30 -90   XYZ
    dof rx
    limits (-10.0 170.0)
  end
  begin
     id 20
     name lwrist
     direction 1 -4.48965e-011 1.58672e-027   
     length 1.79985   
     axis -1.65735e-015 90 90   XYZ
    dof ry
    limits (-180.0 0.0)
 end
  begin
     id 21 
     name lhand
     direction 1 -4.48942e-011 3.17344e-027   
     length 0.62877   
     axis -2.02492e-015 90 90   XYZ
    dof rx rz
    limits (-90.0 90.0)
           (-45.0 45.0)
  end
  begin
     id 22 
     name lfingers
     direction 1 -4.49011e-011 6.34687e-027   
     length 0.506931   
     axis -4.04985e-015 90 90   XYZ
    dof rx
    limits (0.0 90.0)
  end
  begin
     id 23
     name lthumb
     direction 0.707107 -6.34982e-011 0.707107   
     length 0.727854   
     axis -90 45 2.85299e-015   XYZ
    dof rx rz
    limits (-45.0 45.0)
           (-45.0 45.0)
  end
  begin
     id 24 
     name rclavicle
     direction -0.945647 0.32488 0.0143075   
     length 3.52737  
     axis 0 0 0   XYZ 
    dof ry rz
    limits (-10.0 20.0)
           (-20.0 0.0)
  end
  begin
     id 25 
     name rhumerus
     direction -1 -4.48962e-011 1.92182e-027  
     length 5.4902   
     axis -180 30 90   XYZ
    dof rx ry rz
    limits (-90.0 60.0)
           (-90.0 90.0)
           (-90.0 90.0)
  end
  begin
     id 26 
     name rradius
     direction -1 -4.48967e-011 -5.97193e-028   
     length 3.20659   
     axis -180 30 90   XYZ
    dof rx
    limits (-10.0 170.0)
  end
  begin
     id 27 
     name rwrist
     direction -1 -4.48964e-011 1.58672e-027   
     length 1.6033   
     axis -1.65735e-015 -90 -90   XYZ
    dof ry
    limits (-180.0 0.0)
  end
  begin
     id 28
     name rhand
     direction -1 -4.49006e-011 3.17344e-027   
     length 0.691885   
     axis -2.02492e-015 -90 -90   XYZ
    dof rx rz
    limits (-90.0 90.0)
           (-45.0 45.0)
  end
  begin
     id 29
     name rfingers
     direction -1 -4.48908e-011 6.34687e-027   
     length 0.557815   
     axis -4.04985e-015 -90 -90   XYZ
    dof rx
    limits (0.0 90.0)
  end
  begin
     id 30
     name rthumb
     direction -0.707107 -6.34999e-011 0.707107   
     length 0.800915   
     axis -90 -45 -2.85299e-015   XYZ
    dof rx rz
    limits (-45.0 45.0)
           (-45.0 45.0)
  end
:hierarchy
  begin
    root lhipjoint rhipjoint lowerback
    lhipjoint lfemur
    lfemur ltibia
    ltibia lfoot
    lfoot ltoes
    rhipjoint rfemur
    rfemur rtibia
    rtibia rfoot
    rfoot rtoes
    lowerback upperback
    upperback thorax
    thorax lowerneck lclavicle rclavicle
    lowerneck upperneck
    upperneck head
    lclavicle lhumerus
    lhumerus lradius
    lradius lwrist
    lwrist lhand lthumb
    lhand lfingers
    rclavicle rhumerus
    rhumerus rradius
    rradius rwrist
    rwrist rhand rthumb
    rhand rfingers
  end

#!OML:ASF I:\Actors\actors\Patient Classification 1\Patient 1\Session 1\Subject1.ASF
:FULLY-SPECIFIED
:DEGREES
1
root -0.417683 17.4736 7.51822 7.0428 -1.35979 -7.46411
lowerback 0.960799 0.777323 5.51227
upperback -8.40882 1.49915 1.54483
thorax -9.34914 0.382647 -1.57105
lowerneck -0.269672 -11.44 -11.2869
upperneck 3.99522 -16.5087 20.2538
head 3.91577 -8.01622 7.17222
rclavicle 5.61567e-015 3.77691e-015
rhumerus -46.6016 -34.5437 -60.091
rradius 17.5444
rwrist 58.2919
rhand 13.0127 -26.3204
rfingers 7.12502
rthumb 37.9778 -52.1256
lclavicle 5.61567e-015 3.77691e-015
lhumerus -49.1045 35.8741 56.256
lradius 20.6549
lwrist -30.7645
lhand -14.5678 -15.8933
lfingers 7.12502
lthumb 11.5815 13.7667
rfemur -0.140776 24.0222 26.0577
rtibia 1.43639
rfoot -11.8696 -22.0684
rtoes 1.97538
lfemur 8.9139 -41.9554 -16.9106
ltibia -4.87761
lfoot -15.4215 48.8477
ltoes 5.82394
2
root -0.417213 17.4732 7.51835 6.9704 -1.39959 -7.49496
lowerback 0.987978 0.76836 5.49817
upperback -8.3445 1.48719 1.57234
thorax -9.29513 0.381406 -1.53343
lowerneck -0.142087 -11.4717 -11.1299
upperneck 4.13133 -16.5718 20.1078
head 3.91681 -8.04998 7.10207
rclavicle -5.86415e-015 3.10104e-014
rhumerus -46.2135 -34.2166 -60.571
rradius 17.6999
rwrist 57.616
rhand 12.8837 -26.4871
rfingers 7.12502
rthumb 37.8561 -52.3253
lclavicle -5.86415e-015 3.10104e-014
lhumerus -48.3202 34.7411 57.8208
lradius 21.3382
lwrist -29.1656
lhand -14.0679 -12.1706
lfingers 7.12502
lthumb 12.0636 17.4617
rfemur -0.104641 23.9185 26.1097
rtibia 1.50471
rfoot -11.8569 -21.9339
rtoes 1.77038
lfemur 8.9957 -41.789 -16.906
ltibia -4.90103
lfoot -15.3871 48.7211
ltoes 5.73897
3
root -0.416811 17.4736 7.51684 6.9191 -1.44099 -7.47141
lowerback 1.02391 0.749955 5.42666
upperback -8.26004 1.45964 1.61157
thorax -9.22569 0.378045 -1.45031
lowerneck 0.0228516 -11.4886 -11.097
upperneck 3.89136 -16.5675 20.1197
head 3.81586 -8.06573 7.1153
rclavicle 1.11816e-014 3.04141e-014
rhumerus -45.7773 -33.8357 -61.104
rradius 17.8787
rwrist 56.8935
rhand 12.7595 -26.5568
rfingers 7.12502
rthumb 37.7387 -52.4266
lclavicle 1.11816e-014 3.04141e-014
lhumerus -48.5615 35.1679 57.3703
lradius 21.022
lwrist -28.9165
lhand -14.3339 -15.2667
lfingers 7.12502
lthumb 11.8071 14.3804
rfemur -0.0980528 23.8846 26.0886
rtibia 1.56797
rfoot -11.854 -21.8636
rtoes 1.82747
lfemur 9.03886 -41.7786 -16.9895
ltibia -4.83379
lfoot -15.5096 48.7286
ltoes 5.66822
4
root -0.414943 17.4742 7.51402 6.86075 -1.47917 -7.41475
lowerback 1.13514 0.711701 5.34291
upperback -8.18716 1.41155 1.66112
thorax -9.21569 0.364191 -1.34877
lowerneck 0.0825581 -11.4802 -11.0816
upperneck 3.59807 -16.5061 20.0757
head 3.70458 -8.05069 7.11369
rclavicle -8.94531e-016 -3.37934e-015
rhumerus -45.3611 -33.3473 -61.6427
rradius 18.0809
rwrist 56.1423
rhand 12.7258 -26.4238
rfingers 7.12502
rthumb 37.7068 -52.3022
lclavicle -8.94531e-016 -3.37934e-015
lhumerus -47.9635 34.0176 58.8983
lradius 21.8162
lwrist -27.6143
lhand -13.9695 -12.6426
lfingers 7.12502
lthumb 12.1585 16.9841
rfemur -0.0685459 23.8419 26.0259
rtibia 1.58972
rfoot -11.8082 -21.8134
rtoes 1.69873
lfemur 9.07549 -41.779 -17.1217
ltibia -4.74326
lfoot -15.6153 48.7309
ltoes 5.86817
5
root -0.413424 17.4747 7.51127 6.82579 -1.50094 -7.38399
lowerback 1.2511 0.663173 5.29449
upperback -8.14043 1.35391 1.7191
thorax -9.23813 0.342184 -1.25695
lowerneck -0.162212 -11.5551 -11.1155
upperneck 3.70061 -16.5917 19.8831
head 3.77513 -8.07886 7.03135
rclavicle 5.06901e-015 1.17283e-014
rhumerus -45.0231 -32.9227 -62.0532
rradius 18.202
rwrist 55.4952
rhand 12.6756 -26.2706
rfingers 7.12502
rthumb 37.6595 -52.1617
lclavicle 5.06901e-015 1.17283e-014
lhumerus -47.7706 33.2534 59.7287
lradius 22.2209
lwrist -26.5942
lhand -13.9795 -12.7008
lfingers 7.12502
lthumb 12.1489 16.9264
rfemur -0.0535284 23.8221 25.993
rtibia 1.60479
rfoot -11.7593 -21.811
rtoes 1.32746
lfemur 9.08275 -41.709 -17.1617
ltibia -4.72921
lfoot -15.5977 48.6676
ltoes 6.01236
6
root -0.412795 17.4757 7.50907 6.83665 -1.51696 -7.39556
lowerback 1.31883 0.635624 5.31028
upperback -8.11699 1.32446 1.75629
thorax -9.25505 0.328079 -1.22456
lowerneck 0.206637 -11.4569 -11.2601
upperneck 3.08478 -16.4031 20.1585
head 3.5399 -8.02738 7.19337
rclavicle 5.71506e-016 -4.77083e-014
rhumerus -44.8179 -32.6929 -62.2887
rradius 18.2042
rwrist 55.1103
rhand 12.588 -26.2623
rfingers 7.12502
rthumb 37.5766 -52.1755
lclavicle 5.71506e-016 -4.77083e-014
lhumerus -47.8502 32.9542 59.9013
lradius 22.2403
lwrist -26.0081
lhand -14.2309 -14.4345
lfingers 7.12502
lthumb 11.9065 15.207
rfemur -0.0890584 23.8215 25.994
rtibia 1.62709
rfoot -11.7454 -21.8121
rtoes 1.21644
lfemur 9.06489 -41.6724 -17.1162
ltibia -4.76947
lfoot -15.5872 48.6524
ltoes 6.10285
7
root -0.410977 17.4769 7.50766 6.90331 -1.52622 -7.39114
lowerback 1.33024 0.651557 5.39824
upperback -8.11934 1.34854 1.7068
thorax -9.26115 0.330802 -1.3283
lowerneck -0.206818 -11.581 -11.0133
upperneck 3.42393 -16.5704 19.7822
head 3.68033 -8.07653 6.98772
rclavicle -8.05078e-015 2.3059e-014
rhumerus -44.842 -32.7669 -62.3279
rradius 18.1776
rwrist 55.0549
rhand 12.6036 -26.3134
rfingers 7.12502
rthumb 37.5914 -52.2226
lclavicle -8.05078e-015 2.3059e-014
lhumerus -47.8511 32.8232 59.8776
lradius 22.1811
lwrist -25.9264
lhand -14.4129 -15.3765
lfingers 7.12502
lthumb 11.7309 14.2751
rfemur -0.167652 23.8281 25.947
rtibia 1.60996
rfoot -11.7179 -21.8048
rtoes 1.32988
lfemur 8.96171 -41.6543 -17.0509
ltibia -4.77946
lfoot -15.496 48.654
ltoes 5.95923
8
root -0.40819 17.4776 7.50795 7.02128 -1.52514 -7.34453
lowerback 1.28679 0.683834 5.47529
upperback -8.15473 1.38874 1.6221
thorax -9.2694 0.340153 -1.46398
lowerneck -0.464153 -11.6631 -10.9012
upperneck 3.67568 -16.7007 19.6846
head 3.79992 -8.11669 6.90532
rclavicle 3.32964e-015 -4.17448e-015
rhumerus -45.0397 -33.0261 -62.1673
rradius 18.1554
rwrist 55.3053
rhand 12.6989 -26.3392
rfingers 7.12502
rthumb 37.6814 -52.2244
lclavicle 3.32964e-015 -4.17448e-015
lhumerus -47.6659 32.522 60.0979
lradius 22.3079
lwrist -25.9348
lhand -14.3177 -14.5674
lfingers 7.12502
lthumb 11.8227 15.0789
rfemur -0.27044 23.865 25.8313
rtibia 1.54375
rfoot -11.6601 -21.8582
rtoes 1.26788
lfemur 8.80552 -41.7219 -17.0271
ltibia -4.76149
lfoot -15.3596 48.7197
ltoes 5.54801
9
root -0.406614 17.4778 7.51018 7.12194 -1.54717 -7.34644
lowerback 1.23376 0.712689 5.5227
upperback -8.18735 1.4268 1.60505
thorax -9.27089 0.353962 -1.51099
lowerneck -0.635704 -11.7158 -10.928
upperneck 3.88532 -16.7954 19.6727
head 3.90691 -8.14602 6.88066
rclavicle -2.73329e-015 -2.44505e-014
rhumerus -45.2592 -33.2682 -61.9032
rradius 18.1036
rwrist 55.7763
rhand 12.7355 -26.3531
rfingers 7.12502
rthumb 37.716 -52.229
lclavicle -2.73329e-015 -2.44505e-014
lhumerus -47.3574 32.0116 60.6973
lradius 22.718
lwrist -25.9324
lhand -13.7462 -11.7247
lfingers 7.12502
lthumb 12.3738 17.8891
rfemur -0.351232 23.9062 25.7856
rtibia 1.4907
rfoot -11.6148 -21.8823
rtoes 1.15952
lfemur 8.74154 -41.8674 -17.0072
ltibia -4.77663
lfoot -15.5198 48.8778
ltoes 5.70855
10
root -0.406576 17.4777 7.51276 7.17314 -1.5621 -7.42691
lowerback 1.19754 0.731742 5.59654
upperback -8.19543 1.45729 1.63902
thorax -9.25673 0.365143 -1.51809
lowerneck -0.73658 -11.718 -10.8556
upperneck 4.02921 -16.8017 19.5285
head 3.94742 -8.13992 6.81537
rclavicle 1.04362e-014 -8.94531e-015
rhumerus -45.4492 -33.4732 -61.645
rradius 18.0315
rwrist 56.2634
rhand 12.7305 -26.4293
rfingers 7.12502
rthumb 37.7113 -52.3065
lclavicle 1.04362e-014 -8.94531e-015
lhumerus -47.7544 32.9516 59.6223
lradius 21.9099
lwrist -26.4155
lhand -14.2462 -15.4709
lfingers 7.12502
lthumb 11.8917 14.1714
rfemur -0.377072 23.9926 25.8686
rtibia 1.45872
rfoot -11.6374 -21.9165
rtoes 1.31755
lfemur 8.73903 -41.9503 -16.9065
ltibia -4.81974
lfoot -15.7764 48.972
ltoes 6.16583
11
root -0.406275 17.4769 7.51523 7.20645 -1.54259 -7.49732
lowerback 1.15273 0.742335 5.66615
upperback -8.19554 1.47491 1.67148
thorax -9.22942 0.370764 -1.52317
lowerneck -0.631704 -11.6571 -10.7817
upperneck 3.94506 -16.7057 19.4766
head 3.87842 -8.10193 6.80695
rclavicle -2.98177e-015 7.55382e-015
rhumerus -45.6119 -33.6265 -61.4497
rradius 17.9997
rwrist 56.4924
rhand 12.7211 -26.5742
rfingers 7.12502
rthumb 37.7024 -52.4538
lclavicle -2.98177e-015 7.55382e-015
lhumerus -47.5109 32.783 59.9791
lradius 22.0477
lwrist -26.2964
lhand -14.1284 -13.4588
lfingers 7.12502
lthumb 12.0053 16.1768
rfemur -0.36412 24.1095 25.9611
rtibia 1.41546
rfoot -11.6899 -22.0243
rtoes 1.60053
lfemur 8.73182 -41.9906 -16.8094
ltibia -4.85315
lfoot -15.7999 48.9979
ltoes 6.14863
12
root -0.405718 17.4754 7.51791 7.21696 -1.53496 -7.49483
lowerback 1.12408 0.752373 5.64052
upperback -8.19021 1.48697 1.70427
thorax -9.20672 0.380827 -1.47475
lowerneck -0.412863 -11.5636 -10.8498
upperneck 3.77405 -16.567 19.5437
head 3.78118 -8.0523 6.87025
rclavicle 6.21202e-016 3.57812e-015
rhumerus -45.717 -33.6368 -61.3803
rradius 18.0186
rwrist 56.4291
rhand 12.7388 -26.7019
rfingers 7.12502
rthumb 37.7192 -52.577
lclavicle 6.21202e-016 3.57812e-015
lhumerus -47.481 32.9997 59.8942
lradius 22.0509
lwrist -26.8265
lhand -13.9127 -12.4867
lfingers 7.12502
lthumb 12.2133 17.1367
rfemur -0.338125 24.1447 25.9659
rtibia 1.38988
rfoot -11.7268 -22.0619
rtoes 1.83856
lfemur 8.79705 -42.1276 -16.8773
ltibia -4.86608
lfoot -15.8768 49.1157
ltoes 6.17115
13
root -0.40624 17.4738 7.51932 7.19526 -1.53187 -7.45527
lowerback 1.15234 0.768655 5.55991
upperback -8.17735 1.50794 1.73339
thorax -9.20923 0.398688 -1.40138
lowerneck -0.333097 -11.5115 -11.0033
upperneck 3.78453 -16.5005 19.5624
head 3.77487 -8.02579 6.9115
rclavicle -1.23743e-014 -3.37934e-015
rhumerus -45.7838 -33.4891 -61.4454
rradius 18.0662
rwrist 56.2039
rhand 12.7821 -26.8065
rfingers 7.12502
rthumb 37.76 -52.6706
lclavicle -1.23743e-014 -3.37934e-015
lhumerus -47.4861 33.2527 59.7359
lradius 21.9749
lwrist -27.3098
lhand -13.8174 -12.329
lfingers 7.12502
lthumb 12.3052 17.2889
rfemur -0.324138 24.0809 25.921
rtibia 1.4122
rfoot -11.7672 -21.9947
rtoes 2.03038
lfemur 8.89352 -42.2604 -17.0063
ltibia -4.87536
lfoot -16.0379 49.2254
ltoes 6.42966
14
root -0.4076 17.4732 7.51871 7.18355 -1.5017 -7.41994
lowerback 1.2025 0.790789 5.50335
upperback -8.17615 1.53892 1.74104
thorax -9.23642 0.417899 -1.3654
lowerneck -0.246481 -11.4727 -10.9853
upperneck 3.74036 -16.4314 19.4217
head 3.72158 -8.00082 6.87868
rclavicle 4.12478e-015 1.33186e-014
rhumerus -45.8258 -33.1817 -61.6809
rradius 18.1379
rwrist 55.7394
rhand 12.7545 -26.9635
rfingers 7.12502
rthumb 37.734 -52.8346
lclavicle 4.12478e-015 1.33186e-014
lhumerus -47.4101 33.2758 59.7622
lradius 21.9235
lwrist -27.4363
lhand -13.9143 -12.3797
lfingers 7.12502
lthumb 12.2118 17.2438
rfemur -0.338413 24.0343 25.8781
rtibia 1.44517
rfoot -11.7814 -21.969
rtoes 2.02848
lfemur 8.85293 -42.1974 -17.0067
ltibia -4.86007
lfoot -15.9329 49.1436
ltoes 6.26684
15
root -0.40907 17.4734 7.51776 7.18223 -1.44956 -7.39326
lowerback 1.23502 0.805287 5.48127
upperback -8.18678 1.55943 1.72926
thorax -9.26616 0.428261 -1.368
lowerneck -0.011288 -11.3667 -10.8402
upperneck 3.51468 -16.2464 19.2221
head 3.55599 -7.93289 6.83306
rclavicle 1.89839e-014 -2.16675e-014
rhumerus -45.7973 -32.5455 -62.2916
rradius 18.3176
rwrist 54.7324
rhand 12.6121 -27.3363
rfingers 7.12502
rthumb 37.5994 -53.2434
lclavicle 1.89839e-014 -2.16675e-014
lhumerus -47.3185 33.0263 59.9726
lradius 22.0406
lwrist -27.2306
lhand -13.9757 -12.366
lfingers 7.12502
lthumb 12.1525 17.261
rfemur -0.355296 24.0385 25.8542
rtibia 1.47658
rfoot -11.7774 -22.0094
rtoes 1.88905
lfemur 8.72345 -41.9956 -16.9195
ltibia -4.82666
lfoot -15.6599 48.9272
ltoes 5.86957
